<svg xmlns="http://www.w3.org/2000/svg" viewBox="0 0 64 64" fill="none">
  <defs>
    <linearGradient id="fg" x1="0" y1="0" x2="64" y2="64" gradientUnits="userSpaceOnUse">
      <stop offset="0%" stop-color="#2979FF"/>
      <stop offset="100%" stop-color="#7B2FBE"/>
    </linearGradient>
  </defs>
  <rect width="64" height="64" rx="12" fill="#0B0B10"/>
  <!-- Simplified bird -->
  <ellipse cx="44" cy="14" rx="7" ry="8" fill="url(#fg)"/>
  <path d="M49 11 Q60 9 58 15 Q52 17 49 15 Z" fill="url(#fg)"/>
  <path d="M40 21 Q37 30 32 36 Q28 41 26 48" stroke="url(#fg)" stroke-width="7" fill="none" stroke-linecap="round"/>
  <ellipse cx="22" cy="52" rx="13" ry="9" fill="url(#fg)" transform="rotate(-10 22 52)"/>
  <!-- Circuit dots -->
  <circle cx="6"  cy="28" r="3" fill="#2979FF"/>
  <circle cx="14" cy="20" r="3" fill="#2979FF"/>
  <line x1="6" y1="28" x2="14" y2="20" stroke="#2979FF" stroke-width="1.8"/>
  <line x1="6" y1="28" x2="6"  y2="36" stroke="#2979FF" stroke-width="1.8"/>
  <rect x="3" y="36" width="6" height="6" rx="1" fill="#2979FF"/>
  <rect x="11" y="13" width="5" height="5" rx="1" fill="#2979FF"/>
</svg>
